<?xml version="1.0" standalone="no"?>
<!DOCTYPE svg PUBLIC "-//W3C//DTD SVG 20010904//EN"
 "http://www.w3.org/TR/2001/REC-SVG-20010904/DTD/svg10.dtd">
<svg version="1.0" xmlns="http://www.w3.org/2000/svg"
 width="756.000000pt" height="756.000000pt" viewBox="0 0 756.000000 756.000000"
 preserveAspectRatio="xMidYMid meet">
<metadata>
Created by potrace 1.14, written by Peter Selinger 2001-2017
</metadata>
<g transform="translate(0.000000,756.000000) scale(0.100000,-0.100000)"
fill="#000000" stroke="none">
<path d="M2065 5338 c2 -10 -3 -18 -12 -18 -8 0 -11 -5 -8 -10 3 -6 -1 -13 -9
-16 -9 -3 -16 -10 -16 -16 0 -5 6 -6 13 -2 9 6 9 4 -1 -8 -10 -13 -13 -74 -11
-275 1 -142 3 -305 5 -363 6 -160 5 -222 -4 -255 -9 -35 -8 -392 2 -550 4 -60
8 -131 9 -157 2 -33 9 -52 22 -61 10 -8 15 -19 11 -25 -4 -7 -1 -12 8 -12 9 0
16 -7 16 -15 0 -8 5 -15 10 -15 6 0 10 -7 10 -15 0 -8 5 -15 12 -15 6 0 8 -3
5 -6 -4 -4 3 -15 15 -25 11 -11 17 -19 13 -19 -4 0 1 -8 11 -18 10 -9 24 -26
30 -37 6 -11 14 -18 17 -15 3 3 19 -10 34 -29 15 -18 36 -43 46 -54 9 -11 17
-26 17 -34 0 -7 5 -13 10 -13 6 0 10 -7 10 -15 0 -8 5 -15 10 -15 6 0 10 -5
10 -11 0 -7 12 -22 26 -35 15 -14 22 -29 18 -37 -4 -6 -4 -9 1 -5 11 11 47
-33 40 -49 -2 -8 -1 -12 3 -10 9 6 33 -19 25 -27 -4 -3 -1 -6 6 -6 7 0 10 -4
7 -8 -3 -5 4 -14 14 -22 10 -8 17 -17 14 -22 -3 -4 2 -11 11 -14 12 -5 13 -9
4 -21 -7 -8 -8 -13 -3 -12 21 4 34 -2 34 -16 0 -8 4 -15 10 -15 12 0 41 -55
33 -64 -4 -3 1 -6 9 -6 9 0 18 -8 21 -17 4 -10 14 -29 23 -43 l16 -25 -22 25
-22 25 18 -32 c10 -18 22 -29 28 -26 5 4 7 0 3 -10 -4 -10 -2 -14 6 -11 12 4
19 -5 55 -81 11 -23 37 -59 58 -82 54 -56 84 -96 84 -110 0 -7 7 -13 16 -13 8
0 13 -4 10 -8 -3 -5 4 -14 14 -22 10 -8 17 -17 15 -21 -3 -3 6 -18 20 -33 13
-14 21 -26 17 -26 -4 0 0 -5 8 -10 8 -5 15 -13 15 -18 0 -5 8 -16 18 -26 9
-10 14 -22 11 -28 -4 -7 -2 -8 4 -4 7 4 12 1 12 -8 0 -9 7 -16 15 -16 8 0 14
-3 14 -7 -4 -22 3 -33 19 -33 13 0 14 -2 3 -9 -11 -7 -9 -10 8 -16 12 -3 19
-10 16 -15 -7 -12 31 -50 41 -42 4 4 4 2 1 -4 -4 -6 1 -20 9 -30 9 -10 12 -12
8 -4 -6 12 -5 13 7 4 10 -8 189 -10 594 -10 493 1 583 4 603 16 12 8 20 20 18
27 -3 7 -1 15 4 18 9 6 6 24 -12 62 -6 12 -15 20 -20 17 -5 -3 -7 -2 -6 3 3
12 -21 53 -48 82 -14 14 -27 34 -30 44 -3 9 -10 17 -15 17 -6 0 -8 4 -5 9 3 5
-1 11 -9 15 -8 3 -15 11 -15 18 0 8 -9 20 -20 28 -11 8 -20 20 -20 27 0 7 -4
13 -10 13 -5 0 -10 7 -10 15 0 8 -4 15 -9 15 -5 0 -13 9 -16 20 -4 11 -18 32
-31 45 -14 14 -22 25 -19 25 4 0 0 7 -7 15 -30 33 -38 45 -38 55 0 5 -4 10
-10 10 -5 0 -10 7 -10 16 0 8 -4 12 -10 9 -6 -3 -10 2 -10 13 0 11 -11 28 -25
38 -14 10 -23 25 -20 32 3 8 0 10 -7 6 -8 -5 -9 -2 -5 9 3 9 2 16 -2 14 -13
-3 -51 43 -57 69 -3 13 -15 26 -25 29 -11 4 -17 10 -14 15 3 5 -5 18 -17 29
-12 12 -18 21 -13 21 4 0 -1 8 -11 18 -29 26 -61 66 -46 58 6 -4 12 -2 12 3 0
6 -6 11 -14 11 -8 0 -18 9 -21 20 -4 11 -11 17 -17 14 -7 -4 -8 -2 -4 5 5 7
-1 20 -13 30 -11 10 -18 21 -14 24 3 4 -2 9 -11 13 -9 3 -16 12 -16 20 0 8 -4
14 -10 14 -5 0 -10 7 -10 15 0 8 -4 15 -10 15 -5 0 -10 5 -10 10 0 6 -11 22
-25 36 -14 14 -28 36 -31 49 -3 14 -10 23 -14 20 -5 -3 -11 4 -15 15 -3 11
-11 20 -16 20 -6 0 -8 4 -5 9 3 5 -1 12 -10 15 -9 4 -14 9 -10 13 3 3 -3 12
-14 20 -11 8 -20 20 -20 27 0 8 -7 17 -16 20 -9 4 -14 9 -11 13 4 3 -3 14 -14
24 -11 9 -21 21 -22 26 -1 4 -6 7 -10 5 -5 -1 -6 2 -3 7 3 5 -3 20 -14 33 -11
14 -16 29 -12 33 4 5 1 5 -5 1 -7 -4 -13 -2 -13 4 0 6 -4 8 -10 5 -6 -3 -7 1
-4 9 3 9 1 16 -6 16 -6 0 -8 5 -5 10 3 6 0 10 -8 10 -8 0 -17 13 -20 30 -4 18
-13 30 -22 30 -13 0 -19 12 -16 33 0 4 -2 6 -6 5 -5 -2 -9 0 -10 5 -2 4 -12
17 -22 29 -11 11 -18 26 -14 31 3 6 1 7 -4 4 -6 -4 -16 7 -23 23 -7 17 -17 30
-22 30 -5 0 -6 5 -3 10 3 6 -1 10 -10 10 -9 0 -14 4 -10 9 3 5 1 12 -5 16 -6
4 -8 11 -5 16 3 5 -1 6 -10 3 -9 -4 -15 -3 -14 2 4 22 -2 34 -17 34 -8 0 -13
4 -10 9 3 5 -8 24 -24 42 -16 19 -30 37 -30 40 0 3 -11 19 -25 35 -14 16 -25
35 -25 42 0 6 -7 12 -16 12 -8 0 -12 4 -9 10 3 5 -5 21 -18 34 -14 14 -23 27
-21 29 2 2 -5 12 -16 22 -11 10 -20 23 -20 29 0 6 -9 17 -20 24 -11 7 -20 18
-20 25 0 6 -14 28 -30 47 -16 19 -30 40 -30 45 0 6 -9 17 -19 25 -11 7 -18 17
-15 22 3 4 -3 8 -13 8 -14 0 -15 2 -4 9 11 7 9 10 -8 16 -19 6 -20 9 -9 23 7
9 8 13 2 9 -6 -3 -17 5 -24 18 -7 13 -17 22 -22 19 -4 -3 -8 6 -8 20 0 16 -6
26 -14 26 -13 0 -22 12 -24 33 -1 4 -14 19 -28 32 -15 14 -23 25 -18 25 5 0 1
5 -9 11 -9 6 -15 14 -12 20 4 5 1 9 -4 9 -6 0 -11 7 -11 16 0 8 -4 12 -10 9
-5 -3 -10 -1 -10 5 0 6 -9 20 -20 32 -11 12 -20 28 -20 35 0 8 -4 11 -10 8 -5
-3 -10 2 -10 12 0 10 -8 26 -17 34 -25 22 -49 59 -45 70 1 5 -5 9 -14 9 -8 0
-20 13 -25 29 -6 16 -17 32 -25 35 -8 3 -14 10 -14 16 0 6 -7 18 -15 27 -8 8
-13 19 -10 24 4 5 -1 9 -9 9 -14 0 -20 12 -17 33 0 4 -3 7 -7 7 -5 0 -17 7
-28 16 -10 8 -13 13 -6 9 22 -11 13 6 -19 36 -17 16 -27 29 -23 29 5 0 2 6 -7
13 -9 7 -19 22 -23 34 -4 13 -13 22 -19 20 -7 -1 -11 4 -9 11 2 10 -2 10 -17
2 -25 -13 -29 -13 -34 3 -2 6 -3 4 -2 -5z"/>
<path d="M5410 5280 c0 -5 -7 -10 -15 -10 -8 0 -15 -7 -15 -15 0 -9 -7 -18
-15 -21 -8 -4 -15 -15 -15 -25 0 -11 -7 -22 -16 -26 -8 -3 -20 -17 -25 -30 -5
-14 -14 -21 -20 -17 -7 4 -10 1 -7 -7 2 -7 -5 -22 -16 -32 -12 -10 -14 -16 -6
-12 10 4 9 2 -2 -8 -10 -8 -18 -19 -18 -25 0 -6 -5 -14 -12 -18 -7 -5 -8 -3
-3 6 5 9 4 11 -3 6 -7 -4 -12 -13 -12 -20 0 -7 -7 -21 -16 -32 -8 -10 -12 -13
-8 -5 5 9 3 12 -5 7 -6 -4 -9 -11 -6 -15 2 -5 -3 -17 -13 -28 -35 -41 -67 -86
-64 -90 2 -3 -5 -11 -15 -19 -10 -7 -14 -14 -10 -14 4 0 -3 -11 -17 -23 -14
-13 -23 -27 -19 -30 3 -4 1 -7 -5 -7 -7 0 -12 -6 -12 -13 0 -7 -13 -27 -30
-45 -16 -18 -30 -36 -30 -38 0 -12 -28 -32 -35 -26 -5 4 -5 1 -1 -6 5 -8 -1
-23 -15 -38 -12 -13 -20 -24 -16 -24 6 0 -21 -35 -59 -76 -12 -12 -19 -25 -16
-28 3 -3 0 -6 -7 -6 -7 0 -9 -4 -6 -10 3 -5 0 -10 -7 -10 -8 0 -19 -14 -25
-31 -8 -20 -16 -28 -24 -23 -7 4 -9 3 -5 -4 3 -6 -1 -18 -10 -26 -8 -9 -12
-16 -7 -16 4 0 -3 -7 -15 -16 -12 -8 -20 -20 -17 -25 4 -5 1 -9 -4 -9 -6 0
-11 -7 -11 -16 0 -8 -4 -12 -10 -9 -9 5 -12 -1 -9 -21 0 -3 -8 -12 -18 -19
-10 -7 -18 -19 -18 -27 -1 -7 -7 -12 -14 -10 -7 1 -11 -3 -9 -9 2 -7 -11 -28
-29 -47 -18 -18 -31 -37 -28 -42 3 -4 -2 -10 -10 -14 -8 -3 -15 -13 -15 -21 0
-9 -4 -13 -10 -10 -5 3 -10 1 -10 -5 0 -7 -10 -25 -22 -40 -13 -15 -30 -37
-38 -50 -8 -12 -21 -28 -27 -36 -7 -7 -13 -17 -13 -23 0 -6 -4 -11 -10 -11 -5
0 -10 -6 -10 -14 0 -8 -10 -23 -23 -33 -13 -10 -22 -23 -20 -30 2 -6 -8 -19
-22 -29 -17 -11 -24 -23 -20 -33 3 -8 3 -12 -1 -8 -8 8 -50 -46 -60 -76 -3
-11 -12 -16 -20 -13 -8 3 -12 2 -9 -3 3 -5 0 -13 -6 -16 -5 -4 -8 -13 -5 -21
3 -8 -1 -14 -9 -14 -8 0 -15 -5 -15 -11 0 -7 -9 -20 -21 -30 -11 -10 -18 -22
-15 -27 6 -10 -30 -43 -39 -34 -3 4 -3 -2 1 -12 5 -14 4 -17 -4 -12 -11 6 -17
-5 -13 -26 0 -5 -6 -8 -15 -8 -8 0 -12 -5 -9 -10 3 -6 -1 -13 -9 -16 -9 -3
-13 -11 -9 -17 4 -6 0 -8 -10 -4 -10 4 -14 2 -11 -6 5 -14 -16 -44 -60 -88
-16 -16 -23 -29 -16 -29 8 0 5 -7 -7 -17 -43 -39 -60 -117 -31 -146 23 -24
127 -40 154 -25 5 3 18 2 29 -2 11 -4 30 -4 41 1 12 4 25 5 28 2 8 -8 146 -9
146 -2 0 4 16 3 35 -1 19 -4 37 -4 40 1 3 4 16 5 28 0 12 -5 31 -5 41 -1 11 3
38 3 62 0 23 -4 49 -3 56 1 8 4 20 4 26 0 7 -4 33 -5 57 -1 25 4 45 4 45 1 0
-3 71 -5 158 -4 190 3 179 3 195 2 20 -1 46 7 54 16 5 4 1 4 -7 0 -13 -8 -13
-6 -1 8 7 9 17 15 21 12 11 -7 59 54 77 98 8 20 20 37 26 37 6 0 7 3 4 7 -4 3
5 16 18 29 14 13 25 28 25 34 0 5 4 10 9 10 10 0 27 39 23 54 -2 5 4 6 13 3 9
-4 15 -1 15 8 0 8 5 15 11 15 5 0 8 4 5 8 -3 5 6 16 19 26 14 10 22 22 19 27
-3 5 0 9 5 9 6 0 11 6 11 13 0 8 15 26 34 42 19 16 32 34 29 41 -2 7 5 15 17
19 12 4 19 9 16 13 -3 3 1 14 11 24 11 13 12 18 3 18 -8 0 -9 4 -3 13 6 7 8
197 6 482 -5 590 -2 858 10 938 2 15 1 27 -3 27 -4 0 -6 25 -5 55 0 30 -3 55
-8 55 -4 0 -6 4 -2 9 8 15 -40 61 -64 61 -11 0 -21 -4 -21 -10z"/>
</g>
</svg>
